<svg width="266" height="165" viewBox="0 0 266 165" fill="none" xmlns="http://www.w3.org/2000/svg">
<g clip-path="url(#clip0)">
<rect width="266" height="165" fill="white"/>
<rect width="266" height="165" fill="#B27B56"/>
<path d="M251.476 58.7711L243.533 55.0879L225.077 26.2782C225.931 25.11 226.077 23.5166 225.317 22.1998C224.283 20.4094 221.971 19.8092 220.153 20.8592L198.88 33.1408C197.062 34.1908 196.426 36.4931 197.459 38.2835C198.22 39.6003 199.673 40.2701 201.111 40.1151L216.832 70.5035L216.052 79.2232C215.489 85.5068 216.849 91.7002 219.987 97.1357L245.386 141.128C248.481 146.489 255.431 148.293 260.877 145.149L286.156 130.554C291.602 127.409 293.515 120.489 290.42 115.128L265.021 71.1357C261.883 65.701 257.199 61.4252 251.476 58.7711V58.7711ZM282.413 124.071L257.135 138.666C255.319 139.715 253.002 139.113 251.971 137.326L248.108 130.636L279.972 112.239L283.835 118.929C284.867 120.717 284.229 123.023 282.413 124.071V124.071ZM224.474 69.991C224.537 69.287 224.398 68.5823 224.075 67.957L207.855 36.6029L218.664 30.3621L237.706 60.087C238.086 60.6796 238.628 61.1516 239.269 61.449L248.193 65.5874C252.521 67.5946 256.063 70.827 258.436 74.9373L263.701 84.0559L231.836 102.453L226.572 93.3341C224.199 89.2239 223.17 84.5403 223.595 79.7889L224.474 69.991ZM244.365 124.153L235.579 108.935L267.443 90.5384L276.23 105.756L244.365 124.153Z" fill="#502419"/>
<path d="M-14.5242 58.7711L-22.467 55.0879L-40.9226 26.2782C-40.0691 25.11 -39.9226 23.5166 -40.6829 22.1998C-41.7166 20.4094 -44.0286 19.8092 -45.8472 20.8592L-67.1195 33.1408C-68.9381 34.1908 -69.5743 36.4931 -68.5406 38.2835C-67.7804 39.6003 -66.3273 40.2701 -64.8888 40.1151L-49.1676 70.5035L-49.9483 79.2232C-50.5115 85.5068 -49.1509 91.7002 -46.0127 97.1357L-20.6138 141.128C-17.5186 146.489 -10.5691 148.293 -5.12279 145.149L20.1561 130.554C25.6024 127.409 27.5148 120.489 24.4196 115.128L-0.979373 71.1357C-4.11707 65.701 -8.80091 61.4252 -14.5242 58.7711V58.7711ZM16.4134 124.071L-8.86546 138.666C-10.6815 139.715 -12.9975 139.113 -14.0292 137.326L-17.892 130.636L13.9722 112.239L17.835 118.929C18.8668 120.717 18.2286 123.023 16.4134 124.071V124.071ZM-41.526 69.991C-41.4628 69.287 -41.6016 68.5823 -41.9249 67.957L-58.1453 36.6029L-47.336 30.3621L-28.2937 60.087C-27.9137 60.6796 -27.372 61.1516 -26.7308 61.449L-17.807 65.5874C-13.4789 67.5946 -9.93694 70.827 -7.5639 74.9373L-2.29925 84.0559L-34.1635 102.453L-39.4282 93.3341C-41.8012 89.2239 -42.8296 84.5403 -42.4047 79.7889L-41.526 69.991ZM-21.6347 124.153L-30.4208 108.935L1.44343 90.5384L10.2296 105.756L-21.6347 124.153Z" fill="#502419"/>
</g>
<defs>
<clipPath id="clip0">
<rect width="266" height="165" fill="white"/>
</clipPath>
</defs>
</svg>
