<svg width="266" height="165" viewBox="0 0 266 165" fill="none" xmlns="http://www.w3.org/2000/svg">
<g clip-path="url(#clip0)">
<rect width="266" height="165" fill="white"/>
<rect width="266" height="165" fill="#EBBE9B"/>
<path d="M263.354 18.8407L246.874 28.3551L245.685 26.2953C239.804 16.0638 226.743 12.5375 216.511 18.4187C213.227 20.3057 210.503 23.0338 208.62 26.3208C196.819 26.2823 187.221 35.817 187.182 47.6174C187.17 51.4064 188.165 55.1301 190.066 58.4073L191.255 60.4671L180.955 66.4138C179.817 67.0709 179.428 68.5256 180.084 69.6628L230.036 156.182C230.693 157.32 232.147 157.71 233.286 157.053L315.684 109.48C316.823 108.823 317.212 107.368 316.555 106.231L266.603 19.7113C265.946 18.574 264.492 18.1836 263.354 18.8407V18.8407ZM309.564 103.637L296.567 100.154L255.432 28.9071L263.673 24.1496L309.564 103.637ZM243.073 36.043L251.313 31.2855L292.447 102.532L288.965 115.53L243.073 36.043ZM296.681 105.109L308.333 108.231L293.559 116.761L296.681 105.109ZM218.82 22.5798C226.786 17.9943 236.959 20.7201 241.565 28.6743L242.754 30.7341L228.334 39.0593L227.145 36.9995C224.256 31.9941 219.46 28.3752 213.854 26.9713C215.197 25.1875 216.886 23.6944 218.82 22.5798ZM211.508 31.3223C216.349 32.1719 220.567 35.1213 223.025 39.3779L224.215 41.4378L213.915 47.3845L212.726 45.3246C210.268 41.067 209.823 35.94 211.508 31.3223ZM194.185 56.0288C189.589 48.0648 192.317 37.8812 200.281 33.2835C202.214 32.1686 204.351 31.452 206.566 31.179C204.979 36.7357 205.715 42.6992 208.605 47.7036L209.794 49.7634L195.375 58.0886L194.185 56.0288ZM185.393 69.3442L193.633 64.5867L197.202 70.7671L201.321 68.3886L197.753 62.2083L226.593 45.5574L230.161 51.7377L234.281 49.3593L230.713 43.1789L238.953 38.4215L286.527 120.821L232.967 151.744L185.393 69.3442Z" fill="#E7A977"/>
<path d="M220.266 82.1712L212.026 86.9287C210.888 87.5853 210.498 89.0396 211.155 90.1777L215.913 98.4179C223.149 110.918 239.138 115.201 251.655 107.995L259.895 103.238C261.032 102.581 261.422 101.126 260.765 99.9877L256.008 91.7484C248.772 79.2475 232.782 74.964 220.266 82.1712ZM224.774 85.223L227.78 90.429L219.377 88.1774L222.644 86.2909C223.334 85.8952 224.045 85.539 224.774 85.223ZM218.146 92.7719L239.546 98.5053L229.114 104.528C225.31 102.666 222.147 99.7095 220.032 96.0386L218.146 92.7719ZM235.269 106.468L246.045 100.247L252.543 101.989L249.276 103.875C245.043 106.321 240.098 107.236 235.269 106.468ZM253.774 97.394L234.278 92.1702L229.448 83.8044C238.359 82.153 247.345 86.2862 251.887 94.1265L253.774 97.394Z" fill="#E7A977"/>
<path d="M-2.64605 18.8407L-19.1255 28.3551L-20.3147 26.2953C-26.1959 16.0638 -39.2571 12.5375 -49.4886 18.4187C-52.7728 20.3057 -55.4967 23.0338 -57.3797 26.3208C-69.1809 26.2823 -78.7786 35.817 -78.8176 47.6174C-78.8299 51.4064 -77.8354 55.1301 -75.9343 58.4073L-74.745 60.4671L-85.045 66.4138C-86.1831 67.0709 -86.5722 68.5256 -85.9156 69.6628L-35.9636 156.182C-35.307 157.32 -33.8526 157.71 -32.7145 157.053L49.6845 109.48C50.8226 108.823 51.2117 107.368 50.5551 106.231L0.603019 19.7113C-0.0535871 18.574 -1.50792 18.1836 -2.64605 18.8407V18.8407ZM43.5645 103.637L30.5669 100.154L-10.5675 28.9071L-2.32739 24.1496L43.5645 103.637ZM-22.9273 36.043L-14.6872 31.2855L26.4472 102.532L22.9645 115.53L-22.9273 36.043ZM30.6812 105.109L42.3334 108.231L27.559 116.761L30.6812 105.109ZM-47.18 22.5798C-39.2141 17.9943 -29.0412 20.7201 -24.4352 28.6743L-23.246 30.7341L-37.6656 39.0593L-38.8549 36.9995C-41.7436 31.9941 -46.5398 28.3752 -52.1461 26.9713C-50.803 25.1875 -49.1144 23.6944 -47.18 22.5798ZM-54.4921 31.3223C-49.6505 32.1719 -45.4332 35.1213 -42.9745 39.3779L-41.7853 41.4378L-52.0853 47.3845L-53.2745 45.3246C-55.7315 41.067 -56.1771 35.94 -54.4921 31.3223ZM-71.8146 56.0288C-76.4115 48.0648 -73.6828 37.8812 -65.7193 33.2835C-63.7863 32.1686 -61.6494 31.452 -59.434 31.179C-61.0205 36.7357 -60.2854 42.6992 -57.395 47.7036L-56.2058 49.7634L-70.6254 58.0886L-71.8146 56.0288ZM-80.6067 69.3442L-72.3666 64.5867L-68.7983 70.7671L-64.6787 68.3886L-68.2469 62.2083L-39.4068 45.5574L-35.8386 51.7377L-31.7189 49.3593L-35.2871 43.1789L-27.047 38.4215L20.5266 120.821L-33.0331 151.744L-80.6067 69.3442Z" fill="#E7A977"/>
</g>
<defs>
<clipPath id="clip0">
<rect width="266" height="165" fill="white"/>
</clipPath>
</defs>
</svg>
