<svg width="266" height="165" viewBox="0 0 266 165" fill="none" xmlns="http://www.w3.org/2000/svg">
<g clip-path="url(#clip0)">
<rect width="266" height="165" fill="white"/>
<rect width="266" height="165" fill="#C7CB85"/>
<path d="M308.989 81.7286L208.007 140.03C206.149 141.103 205.512 143.482 206.585 145.34C207.658 147.198 210.036 147.835 211.894 146.762L312.876 88.4607C314.734 87.3879 315.371 85.0093 314.298 83.1513C313.226 81.2932 310.847 80.6558 308.989 81.7286ZM222.996 41.615L219.11 34.8829L225.842 30.9962C227.7 29.9234 228.337 27.5448 227.264 25.6867C226.192 23.8287 223.813 23.1913 221.955 24.2641L201.759 35.9244C199.901 36.9972 199.263 39.3758 200.336 41.2338C201.409 43.0919 203.787 43.7293 205.645 42.6565L212.378 38.7697C212.378 38.7697 216.4 45.7914 216.264 45.5018C189.106 63.5111 180.351 99.9015 196.868 128.509C198.446 131.243 197.738 130.017 198.811 131.876C199.884 133.734 202.263 134.371 204.121 133.298L305.102 74.9965C306.96 73.9237 307.598 71.5451 306.525 69.6871C305.452 67.829 306.282 69.2662 304.581 66.321C288.065 37.713 252.172 27.0998 222.996 41.615ZM203.6 124.623C188.574 98.5963 197.491 65.3169 223.517 50.2905C249.544 35.2642 282.823 44.1814 297.849 70.2078L203.6 124.623Z" fill="#7EA172"/>
<path d="M42.9889 81.5401L-57.9926 139.842C-59.8506 140.915 -60.488 143.293 -59.4152 145.151C-58.3425 147.009 -55.9639 147.647 -54.1058 146.574L46.8757 88.2722C48.7338 87.1995 49.3711 84.8208 48.2984 82.9628C47.2256 81.1047 44.847 80.4674 42.9889 81.5401ZM-43.0036 41.4266L-46.8904 34.6945L-40.1583 30.8077C-38.3002 29.7349 -37.6628 27.3563 -38.7356 25.4982C-39.8083 23.6402 -42.187 23.0028 -44.045 24.0756L-64.2413 35.7359C-66.0994 36.8087 -66.7368 39.1873 -65.664 41.0454C-64.5913 42.9034 -62.2126 43.5408 -60.3546 42.468L-53.6225 38.5812C-53.6225 38.5812 -49.5999 45.6029 -49.7357 45.3133C-76.8942 63.3226 -85.649 99.713 -69.1322 128.321C-67.5542 131.054 -68.2616 129.829 -67.1888 131.687C-66.1161 133.545 -63.7374 134.182 -61.8794 133.11L39.1022 74.808C40.9602 73.7353 41.5976 71.3566 40.5248 69.4986C39.4521 67.6405 40.2819 69.0778 38.5814 66.1325C22.0646 37.5245 -13.8278 26.9113 -43.0036 41.4266ZM-62.4001 124.434C-77.4264 98.4078 -68.5092 65.1284 -42.4828 50.1021C-16.4565 35.0757 16.823 43.9929 31.8493 70.0193L-62.4001 124.434Z" fill="#7EA172"/>
</g>
<defs>
<clipPath id="clip0">
<rect width="266" height="165" fill="white"/>
</clipPath>
</defs>
</svg>
