<svg width="36" height="43" viewBox="0 0 36 43" fill="none" xmlns="http://www.w3.org/2000/svg">
<path d="M35 17.49C35.11 23.84 31.22 28.37 30 29.72L17.54 42.72C13.0667 38.0533 8.60667 33.4 4.16 28.76C1.50042 25.604 0.028745 21.6171 0 17.49C0.17 9.25 7.12 0 17.5 0C27.88 0 34.85 9.12 35 17.49Z" fill="#436038"/>
<path d="M13.8324 13.9193L14.5801 9H10.7L9.07084 13.2166C9.02335 13.3682 8.99947 13.5262 9.00001 13.6851C9.00001 14.7236 10.0861 15.5591 11.4241 15.5591C11.9549 15.6051 12.4853 15.4667 12.9246 15.1676C13.3639 14.8685 13.6848 14.4272 13.8324 13.9193V13.9193ZM17.5 15.5591C18.838 15.5591 19.9241 14.7236 19.9241 13.6851V13.5757L19.4676 9.00781H15.5324L15.0523 13.5757C15.0484 13.6147 15.0484 13.6539 15.0523 13.6929C15.0681 14.7002 16.1542 15.5669 17.5 15.5669V15.5591ZM22.2222 16.5429V20.2441H12.7778V16.5508C12.3435 16.7056 11.8855 16.7849 11.4241 16.785C11.2448 16.7814 11.066 16.7657 10.8889 16.7382V22.6882C10.8889 23.0348 11.0271 23.3672 11.2734 23.613C11.5196 23.8588 11.8539 23.9979 12.2032 24H22.7889C23.1389 23.998 23.474 23.8591 23.7216 23.6135C23.9691 23.3679 24.109 23.0355 24.1111 22.6882V16.7382C23.9318 16.7693 23.7501 16.785 23.5681 16.785C23.1091 16.7854 22.6536 16.7061 22.2222 16.5508V16.5429ZM25.9213 13.2166L24.3 9H20.412L21.1597 13.9193C21.3045 14.4295 21.6244 14.8734 22.0642 15.1743C22.504 15.4752 23.036 15.614 23.5681 15.5669C24.9139 15.5669 26 14.7314 26 13.6929C25.998 13.5336 25.9715 13.3756 25.9213 13.2244V13.2166Z" fill="white"/>
</svg>
