<svg width="36" height="43" viewBox="0 0 36 43" fill="none" xmlns="http://www.w3.org/2000/svg">
<path d="M35 17.49C35.11 23.84 31.22 28.37 30 29.72L17.54 42.72C13.0667 38.0533 8.60667 33.4 4.16 28.76C1.50042 25.604 0.028745 21.6171 0 17.49C0.17 9.25 7.12 0 17.5 0C27.88 0 34.85 9.12 35 17.49Z" fill="#7EA172"/>
<path d="M26.3336 19.666H8.59743C8.44168 19.6597 8.29403 19.5959 8.1838 19.4872C8.07358 19.3785 8.00886 19.2329 8.00249 19.0793C7.95053 16.9371 8.71333 14.8533 10.1408 13.2378C11.5638 11.6356 13.5335 10.6039 15.6764 10.3383C15.7939 10.3398 15.9092 10.3063 16.0072 10.2424C16.1053 10.1784 16.1816 10.0869 16.2262 9.97961C16.2708 9.87235 16.2817 9.75434 16.2575 9.6409C16.2332 9.52747 16.175 9.42383 16.0902 9.34346C16.0383 9.28616 15.9744 9.24055 15.903 9.20974C15.8316 9.17893 15.7543 9.16364 15.6764 9.1649C15.599 9.1678 15.5219 9.15409 15.4505 9.12473C15.379 9.09537 15.3149 9.05105 15.2625 8.99484C15.2057 8.9426 15.1603 8.87944 15.1291 8.80925C15.098 8.73906 15.0818 8.66332 15.0814 8.5867C15.0878 8.43311 15.1525 8.2875 15.2627 8.17881C15.373 8.07011 15.5206 8.00628 15.6764 8.00001H19.2201C19.2992 7.99967 19.3775 8.01535 19.4502 8.04606C19.5228 8.07678 19.5884 8.12188 19.6426 8.17857C19.6979 8.23153 19.7417 8.29502 19.7713 8.36518C19.801 8.43534 19.8159 8.5107 19.8151 8.5867C19.8138 8.73972 19.7519 8.88618 19.6426 8.99484C19.5879 9.0504 19.5221 9.0942 19.4494 9.12346C19.3767 9.15273 19.2987 9.16684 19.2201 9.1649C19.0624 9.1649 18.911 9.22671 18.7995 9.33674C18.6879 9.44677 18.6252 9.596 18.6252 9.7516C18.6252 9.9072 18.6879 10.0564 18.7995 10.1665C18.911 10.2765 19.0624 10.3383 19.2201 10.3383C21.379 10.5923 23.3661 11.6251 24.7988 13.2378C26.2392 14.8469 27.0092 16.9336 26.9544 19.0793C26.9552 19.1553 26.9403 19.2306 26.9106 19.3008C26.881 19.3709 26.8372 19.4344 26.7819 19.4874C26.7247 19.5473 26.655 19.5943 26.5776 19.6252C26.5002 19.656 26.4169 19.6699 26.3336 19.666V19.666ZM8.59743 20.8309H26.3336C26.4171 20.8209 26.5019 20.8285 26.5822 20.8532C26.6626 20.8779 26.7367 20.9192 26.7997 20.9742C26.8626 21.0293 26.9131 21.0969 26.9476 21.1726C26.9821 21.2483 27 21.3303 27 21.4133C27 21.4963 26.9821 21.5784 26.9476 21.654C26.9131 21.7297 26.8626 21.7973 26.7997 21.8524C26.7367 21.9074 26.6626 21.9487 26.5822 21.9734C26.5019 21.9981 26.4171 22.0057 26.3336 21.9957H8.59743C8.4418 21.9936 8.29301 21.9323 8.18215 21.8245C8.07129 21.7168 8.00692 21.571 8.00249 21.4176C8.00215 21.3396 8.01805 21.2624 8.04919 21.1907C8.08034 21.119 8.12607 21.0544 8.18356 21.0009C8.23727 20.9464 8.30165 20.9032 8.3728 20.874C8.44394 20.8448 8.52036 20.8301 8.59743 20.8309Z" fill="white"/>
</svg>
