<svg width="46" height="46" viewBox="0 0 46 46" fill="none" xmlns="http://www.w3.org/2000/svg">
<path d="M44.4764 23.2918C44.4768 24.2719 44.4111 25.2508 44.2799 26.2221C43.6974 30.4757 41.8651 34.4632 39.013 37.6839C36.161 40.9046 32.4164 43.2149 28.2494 44.3246C26.7466 44.7232 25.2053 44.9605 23.6517 45.0325C23.3047 45.0495 22.9549 45.0576 22.6042 45.0576C18.4926 45.0581 14.4641 43.9054 10.9807 41.7316C7.49722 39.5578 4.6999 36.4509 2.90947 32.7673C1.11905 29.0838 0.408023 24.9725 0.857928 20.9052C1.30783 16.8378 2.90045 12.979 5.45315 9.77123C6.56314 8.37821 7.83944 7.12488 9.25388 6.03893C9.66797 5.72133 10.0935 5.41838 10.5304 5.13008C14.0648 2.80413 18.2015 1.54907 22.4386 1.51722C26.6757 1.48537 30.8311 2.67809 34.4003 4.95065C34.5464 5.04395 34.6915 5.13906 34.8358 5.23595C37.8066 7.2287 40.2396 9.9177 41.9208 13.0663C43.6019 16.2148 44.4795 19.7264 44.4764 23.2918Z" fill="#ABCFF3"/>
<path d="M11.9176 30.9637C14.2662 31.6806 16.7471 31.8613 19.1755 31.4922C18.3588 30.5133 17.3166 29.1855 16.2006 27.5445C15.5948 26.6527 14.1109 24.4564 12.8921 21.9273C10.9647 17.9303 10.3535 14.4716 9.87025 11.6096C9.22445 7.77526 9.03293 3.87876 9.2996 0C7.5049 3.58139 6.08159 7.33547 5.05173 11.2041C3.16579 18.3161 3.75267 21.6114 4.1313 23.1447C4.80291 25.8498 5.86308 27.191 6.30842 27.7051C8.10601 29.7821 10.3625 30.4819 11.9176 30.9637Z" fill="#C7CB85"/>
<path d="M19.1758 31.4922C19.9069 30.4457 20.5083 29.3151 20.9671 28.1251C22.4455 24.2752 21.9587 20.9655 21.8433 20.2522C21.6423 19.0303 21.2519 16.7972 19.6527 14.6646C18.8512 13.5951 17.8902 12.7446 16.8652 11.8384C15.3724 10.5178 15.1181 10.5447 14.0526 9.59545C13.1979 8.83104 11.4878 7.27353 10.3762 4.79998C9.70201 3.28817 9.33614 1.65816 9.29985 0.0045166C9.03318 3.88328 9.2247 7.77978 9.8705 11.6141C10.3537 14.4743 10.9649 17.933 12.8923 21.9318C14.1112 24.4609 15.5968 26.6573 16.2008 27.5491C17.3151 29.1855 18.3572 30.5134 19.1758 31.4922Z" fill="#7EA172"/>
<path d="M18.08 27.8765C18.8254 29.2746 19.8776 30.4878 21.1586 31.4257C21.2353 30.6048 21.3687 29.5219 21.6094 28.2641C21.7428 27.5795 22.0737 25.8973 22.6795 24.1836C23.636 21.475 24.9476 19.6125 26.0421 18.0828C27.5108 16.0325 29.2161 14.1608 31.1229 12.5059C28.654 13.3275 26.2755 14.3974 24.0245 15.6989C19.8884 18.0962 18.6389 19.8745 18.1089 20.7474C17.1749 22.2924 17.0433 23.3896 17.0117 23.8302C16.8783 25.5985 17.5896 26.947 18.08 27.8765Z" fill="#C7CB85"/>
<path d="M21.1589 31.4257C21.9754 31.2796 22.7712 31.0359 23.529 30.6999C25.1248 29.9936 26.5106 28.8894 27.5524 27.4943C28.023 26.8429 28.8713 25.6425 29.1201 23.9369C29.2454 23.0819 29.1967 22.2547 29.1444 21.3728C29.0687 20.0871 28.9398 19.9839 28.8893 19.0625C28.8496 18.3232 28.7829 16.8303 29.4122 15.1911C29.7991 14.1921 30.3813 13.2794 31.125 12.5059C29.2182 14.1608 27.5129 16.0325 26.0442 18.0828C24.9497 19.6125 23.6381 21.475 22.6816 24.1836C22.0758 25.8973 21.7449 27.5795 21.6115 28.2641C21.3699 29.5219 21.2365 30.6048 21.1589 31.4257Z" fill="#7EA172"/>
<path d="M41.9089 28.6149C40.2782 29.9425 38.3677 30.8873 36.3196 31.3791C36.6487 30.3375 37.0408 28.9459 37.3942 27.2852C37.5844 26.3809 38.0469 24.1567 38.1893 21.7541C38.4165 17.9572 37.7737 15.0117 37.2247 12.5848C36.4865 9.33035 35.367 6.17337 33.8892 3.17871C36.4836 5.44226 38.8397 7.9629 40.9209 10.7016C44.7387 15.7411 45.349 18.5511 45.5465 19.8888C45.8962 22.2547 45.4915 23.6624 45.3049 24.2151C44.5503 26.4455 42.9871 27.7293 41.9089 28.6149Z" fill="#7EA172"/>
<path d="M36.318 31.3791C35.3948 30.7843 34.5472 30.0806 33.7938 29.2833C31.3661 26.7012 30.6728 23.9199 30.5349 23.3134C30.2951 22.278 29.8777 20.3778 30.452 18.1671C30.7396 17.0591 31.2255 16.0731 31.7438 15.027C32.4984 13.4946 32.7093 13.4344 33.2457 12.3354C33.6748 11.4526 34.5259 9.66267 34.598 7.33896C34.6396 5.92087 34.3981 4.50867 33.8876 3.18408C35.3655 6.17875 36.485 9.33572 37.2231 12.5902C37.7722 15.0171 38.4149 17.9625 38.1878 21.7594C38.0453 24.1621 37.5828 26.3862 37.3926 27.2906C37.0419 28.9441 36.6471 30.3375 36.318 31.3791Z" fill="#C7CB85"/>
<path d="M15.614 35.4299C15.522 35.1112 15.3753 34.8107 15.1804 34.5417C15.0009 34.2904 14.7803 34.0708 14.5277 33.8922C14.3169 33.7406 14.0872 33.6169 13.8444 33.5243C13.6384 33.4541 13.4275 33.3992 13.2133 33.3601C13.202 33.3578 13.1918 33.3518 13.1843 33.3431C13.1768 33.3344 13.1724 33.3234 13.1717 33.312C13.1711 33.3005 13.1743 33.2891 13.1809 33.2797C13.1874 33.2702 13.1969 33.2632 13.2079 33.2596C13.4234 33.1954 13.6343 33.1166 13.839 33.0237C14.0695 32.9106 14.2856 32.7706 14.4827 32.6065C14.8065 32.3339 15.0707 31.998 15.2588 31.6196C15.3527 31.4278 15.4284 31.2278 15.4851 31.0221C15.5822 30.6696 15.6307 30.3056 15.6294 29.9401C15.6328 29.4754 15.5481 29.0142 15.3796 28.5808C15.2434 28.2258 15.0368 27.9018 14.772 27.628C14.5173 27.3888 14.2214 27.197 13.8985 27.0619C13.5083 26.8994 13.0971 26.7925 12.6769 26.7443C12.0871 26.6878 11.4944 26.6647 10.9019 26.6752C10.2107 26.6752 9.38317 26.6901 8.41916 26.72C7.45516 26.75 6.61075 26.7646 5.88594 26.764H5.60738L5.01059 26.7586C4.85114 26.7566 4.69287 26.7861 4.54497 26.8455C4.39708 26.9048 4.26249 26.9928 4.14902 27.1043C4.03555 27.2158 3.94546 27.3486 3.88398 27.495C3.8225 27.6414 3.79084 27.7986 3.79086 27.9573V27.9662C3.79086 28.7797 3.7593 30.179 3.6962 32.1642C3.67396 32.8748 3.65112 33.5327 3.62769 34.138C4.99211 36.4953 6.78608 38.5789 8.91769 40.2819C9.53011 40.2753 10.1203 40.264 10.6882 40.2478C11.6024 40.2209 12.2334 40.1811 12.5814 40.1285C13.0133 40.0539 13.4328 39.9205 13.8282 39.7319C14.2003 39.5653 14.5369 39.3293 14.8198 39.0366C15.1268 38.7065 15.3641 38.3185 15.5176 37.8954C15.6862 37.4412 15.7708 36.9603 15.7673 36.4761C15.7672 36.1218 15.7156 35.7695 15.614 35.4299ZM9.5857 29.3515C10.1176 29.3515 10.5133 29.3979 10.773 29.4906C11.0053 29.5623 11.2048 29.7132 11.3364 29.9167C11.4542 30.1148 11.5144 30.3415 11.5104 30.5717C11.5102 30.6582 11.5033 30.7446 11.4897 30.8301C11.4747 30.9176 11.4533 31.004 11.4257 31.0885C11.3844 31.2094 11.3235 31.3227 11.2454 31.424C11.0599 31.657 10.8017 31.8218 10.5115 31.8923C10.368 31.9309 10.2219 31.9591 10.0743 31.9767C9.74457 32.0049 9.41358 32.0163 9.08267 32.0108H7.7205C7.71348 32.0109 7.70651 32.0096 7.70003 32.0069C7.69355 32.0042 7.6877 32.0002 7.68287 31.9951C7.67803 31.9901 7.67431 31.9841 7.67194 31.9775C7.66957 31.9709 7.66861 31.9639 7.66911 31.9569L7.78901 29.3999C7.78948 29.3868 7.79513 29.3743 7.80474 29.3653C7.81436 29.3562 7.82716 29.3513 7.8404 29.3515H9.5857ZM11.5059 36.6959C11.4282 36.8853 11.3043 37.0524 11.1453 37.1821C10.9445 37.322 10.7172 37.4197 10.4773 37.4692C10.1089 37.5408 9.73365 37.5709 9.35852 37.559H7.49152C7.48457 37.5588 7.47772 37.5574 7.47136 37.5546C7.465 37.5518 7.45926 37.5478 7.45448 37.5428C7.4497 37.5378 7.44596 37.5319 7.4435 37.5254C7.44104 37.5189 7.43989 37.512 7.44013 37.5051L7.55913 34.7499C7.5596 34.7366 7.56522 34.7241 7.5748 34.7149C7.58439 34.7057 7.59719 34.7005 7.61052 34.7005H9.66594C9.99999 34.6908 10.3341 34.7158 10.663 34.775C10.8589 34.8161 11.0434 34.8991 11.2039 35.0181C11.3471 35.1274 11.4603 35.2709 11.5329 35.4353C11.6099 35.6172 11.6473 35.8132 11.6429 36.0104C11.6453 36.2459 11.5987 36.4793 11.5059 36.6959Z" fill="#502419"/>
<path d="M19.0855 40.2649C18.911 40.2668 18.7379 40.2327 18.5773 40.1647C18.4167 40.0967 18.2721 39.9963 18.1524 39.8698C18.0328 39.7433 17.9408 39.5935 17.8823 39.4299C17.8238 39.2663 17.8001 39.0923 17.8126 38.9191C18.1317 34.2627 18.2916 30.6264 18.2922 28.0102C18.2907 27.8433 18.3227 27.6777 18.3863 27.5233C18.4498 27.3688 18.5437 27.2285 18.6624 27.1106C18.7811 26.9926 18.9222 26.8994 19.0775 26.8363C19.2328 26.7733 19.3992 26.7417 19.5669 26.7433C20.0429 26.7475 20.393 26.7496 20.6171 26.7496L21.3852 26.7442C21.5601 26.7423 21.7336 26.7765 21.8945 26.8448C22.0554 26.913 22.2003 27.0138 22.32 27.1408C22.4397 27.2678 22.5316 27.4181 22.5898 27.5823C22.648 27.7465 22.6713 27.9209 22.6581 28.0945C22.5854 29.0868 22.5235 30.0414 22.4724 30.9583C22.3799 32.8125 22.3131 34.5444 22.2723 36.1539C22.2458 37.212 22.2281 38.169 22.2191 39.0249C22.2174 39.1899 22.1832 39.3529 22.1182 39.5047C22.0533 39.6564 21.9589 39.794 21.8405 39.9095C21.7222 40.0249 21.5821 40.1161 21.4283 40.1777C21.2746 40.2393 21.1101 40.2701 20.9444 40.2684L20.1691 40.2613C19.9407 40.2595 19.5795 40.2607 19.0855 40.2649Z" fill="#502419"/>
<path d="M40.2012 30.4228C39.8196 29.5885 39.2538 28.8507 38.546 28.2641C37.7929 27.6309 36.9122 27.1656 35.9632 26.8995C34.9646 26.6133 33.9302 26.4698 32.8909 26.4733C31.2298 26.4733 29.7357 26.7808 28.4087 27.3956C27.0817 28.0105 26.081 28.8658 25.4067 29.9616C24.7324 31.0574 24.3952 32.3293 24.3952 33.7773C24.3828 34.6965 24.5452 35.6098 24.8739 36.4689C25.193 37.2764 25.7339 38.0091 26.4966 38.667C27.275 39.3342 28.1921 39.8216 29.1822 40.0944C30.2333 40.3919 31.3212 40.5408 32.414 40.5367C33.5233 40.5417 34.6278 40.3907 35.6946 40.0881C36.2365 39.9357 36.7596 39.7235 37.2542 39.4556C38.3211 38.4976 39.2909 37.4378 40.1498 36.2913C40.5579 35.3242 40.7622 34.2842 40.7502 33.2354C40.7496 32.1744 40.5666 31.2368 40.2012 30.4228ZM35.9479 35.4039C35.6442 36.0477 35.1546 36.5868 34.5416 36.9525C33.9292 37.319 33.2269 37.5096 32.5123 37.5033C31.8266 37.5046 31.1514 37.3356 30.5479 37.0117C29.9562 36.7108 29.4734 36.2338 29.1668 35.6471C28.8621 35.0511 28.7074 34.3904 28.7161 33.7217C28.7115 32.9797 28.8823 32.247 29.2146 31.5828C29.5276 30.9366 30.0216 30.3941 30.6372 30.0208C31.2624 29.6455 31.9805 29.4513 32.7106 29.4601C33.3951 29.45 34.0699 29.6213 34.666 29.9562C35.236 30.2786 35.6948 30.7649 35.9822 31.3513C36.2846 31.9603 36.439 32.6315 36.4329 33.3108C36.4342 34.0362 36.2683 34.7523 35.9479 35.4039Z" fill="#502419"/>
<path d="M32.9148 42.4917C31.4364 43.2813 29.8708 43.897 28.2495 44.3265C28.2576 44.3112 28.2648 44.2951 28.273 44.2789C28.8994 42.9875 29.3539 41.6203 29.6252 40.212C29.709 39.8037 29.7785 39.4144 29.8434 39.0456C29.9579 38.3916 30.066 37.6245 30.1364 36.7569C30.2339 35.5558 30.2457 34.3493 30.1715 33.1466C30.8566 34.5358 31.4328 35.9756 31.8952 37.4531C32.0538 37.9591 32.1846 38.4266 32.2936 38.8491C32.4523 39.4646 32.5758 40.0244 32.6696 40.5331C32.7927 41.1802 32.8746 41.8344 32.9148 42.4917Z" fill="#7EA172"/>
<path d="M30.1357 36.7542C30.0653 37.6218 29.9554 38.3889 29.8427 39.0429C29.7778 39.4126 29.7083 39.8019 29.6245 40.2093C29.3532 41.6176 28.8987 42.9848 28.2723 44.2762C28.2641 44.2924 28.2569 44.3085 28.2488 44.3238C26.7461 44.7224 25.2047 44.9597 23.6512 45.0317C23.6164 44.4846 23.6433 43.9354 23.7314 43.3943C23.8378 42.7734 24.0433 41.6403 24.8637 40.5619C25.2739 40.0236 25.7652 39.5911 26.289 39.1335C26.4386 39.0026 26.5648 38.8976 26.673 38.8115C27.1192 38.4526 27.2887 38.388 27.7259 38.004C28.3944 37.4419 28.9586 36.7674 29.3928 36.0113C29.4685 35.8744 29.5413 35.7302 29.611 35.5789C29.9584 34.8122 30.1499 33.9846 30.1744 33.1439C30.2474 34.3467 30.2344 35.5532 30.1357 36.7542Z" fill="#C7CB85"/>
</svg>
