<svg width="45" height="46" viewBox="0 0 45 46" fill="none" xmlns="http://www.w3.org/2000/svg">
<path d="M44.2425 23.2572C44.2435 25.2934 43.9597 27.3197 43.3992 29.2773C43.3543 29.4477 43.3005 29.6182 43.2466 29.7887C43.148 30.1117 43.0403 30.4257 42.9237 30.7397H2.00295C1.94015 30.5692 1.88632 30.3988 1.82351 30.2373C1.71585 29.9233 1.61716 29.6003 1.52744 29.2773C0.966947 27.3197 0.683077 25.2934 0.684085 23.2572C0.684085 22.665 0.711 22.0818 0.75586 21.4987C1.41978 13.2266 6.70421 6.25546 14.0253 3.16914L14.2406 2.20915C14.5008 1.67084 14.9852 0.92617 15.8196 0.594211C16.0796 0.4918 16.3567 0.44003 16.6361 0.441689C17.1116 0.441689 17.623 0.567295 18.2779 0.701873C19.1482 0.881311 20.7542 1.2043 22.1717 1.22224C23.3381 1.23121 23.2483 1.01589 26.8191 0.567295C27.2828 0.497579 27.7501 0.455635 28.2188 0.441689C28.7032 0.441689 29.0801 0.522436 29.4479 0.755704C30.2105 1.22224 30.5245 2.03868 30.6681 2.54111L30.8027 3.13325C38.0878 6.15677 43.3812 13.0203 44.1438 21.2026C44.2066 21.8845 44.2425 22.5663 44.2425 23.2572Z" fill="#ABCFF3"/>
<path d="M44.2421 23.2572C44.2432 25.2934 43.9593 27.3198 43.3988 29.2773C43.3539 29.4478 43.3001 29.6183 43.2463 29.7887C43.1052 29.8898 42.9584 29.9827 42.8067 30.0669C42.7349 30.0669 42.6182 30.0758 42.4837 30.0848C40.6557 30.2084 38.8351 30.424 37.0288 30.7308C36.006 30.9012 35.037 31.0986 34.1129 31.3139C32.6864 31.6369 31.3765 31.9958 30.1922 32.3547C29.4027 32.5879 28.676 32.8302 27.9851 33.0635C27.698 33.1621 27.4199 33.2608 27.1507 33.3506C25.6165 33.8889 24.3695 34.3554 23.4005 34.6515C23.3467 34.6694 23.2928 34.6784 23.248 34.6963C22.7994 34.8309 22.3239 34.9476 21.8304 35.0462C20.9101 35.2277 19.9773 35.3387 19.0402 35.3782C18.6723 35.3961 18.2865 35.3961 17.8918 35.3961C17.8139 35.3978 17.736 35.3948 17.6585 35.3872C16.7331 35.361 15.8102 35.2771 14.8952 35.136C14.8617 35.1336 14.8286 35.1276 14.7965 35.118C12.6963 34.7774 10.6368 34.2212 8.65074 33.4582C6.70982 32.7201 4.81878 31.857 2.98949 30.8743C2.88227 30.8289 2.77746 30.778 2.67547 30.7218C2.38691 30.5723 2.10821 30.4045 1.84109 30.2194C1.73343 29.9054 1.63474 29.5824 1.54502 29.2594C0.984525 27.3018 0.700655 25.2755 0.701663 23.2393C0.701663 22.6471 0.728578 22.0639 0.773438 21.4808C1.77829 20.3234 3.25865 19.5339 4.91844 19.5339C7.61898 19.5339 9.87989 21.3372 10.4182 23.7507C10.567 23.7325 10.7169 23.7235 10.8668 23.7237C12.1408 23.7237 13.2264 24.28 13.6301 25.0605C14.0103 24.2635 14.6361 23.6094 15.4155 23.1944C16.0881 22.8321 16.8407 22.6439 17.6047 22.6471C19.5695 22.6471 21.2293 23.8583 21.7497 25.5091C21.7497 25.5181 21.7497 25.5271 21.7586 25.5271C22.288 25.5181 22.8173 25.5091 23.3646 25.5091V25.5002C23.885 23.8493 25.5448 22.6381 27.5096 22.6381C28.2122 22.6373 28.9057 22.7968 29.5373 23.1047C30.3912 23.5099 31.0789 24.1976 31.4842 25.0516C31.8879 24.271 32.9735 23.7148 34.2475 23.7148C34.3974 23.7145 34.5472 23.7235 34.6961 23.7417C35.2344 21.3282 37.4863 19.5249 40.1958 19.5249C41.6829 19.539 43.1044 20.1386 44.1524 21.1937C44.2063 21.8845 44.2421 22.5664 44.2421 23.2572Z" fill="#7EA172"/>
<path d="M43.3992 29.2862C43.3543 29.4567 43.3005 29.6271 43.2467 29.7976C43.148 30.1206 43.0403 30.4346 42.9237 30.7486C41.045 35.8513 37.3353 40.0727 32.5163 42.5915C30.818 43.4826 29.0073 44.1404 27.1332 44.5474C26.7025 44.646 26.2629 44.7268 25.8143 44.7896C23.5848 45.1365 21.315 45.1365 19.0854 44.7896C18.6907 44.7268 18.2959 44.655 17.9011 44.5743C14.2976 43.802 10.9482 42.1299 8.16519 39.714C5.38216 37.298 3.25606 34.2169 1.98503 30.7576C1.92223 30.5871 1.8684 30.4167 1.80559 30.2552C1.69793 29.9411 1.59924 29.6182 1.50952 29.2952C1.7755 28.8655 2.13935 28.5048 2.57135 28.2426C3.00335 27.9804 3.49125 27.8241 3.99519 27.7865C4.49914 27.7489 5.00483 27.831 5.47098 28.0261C5.93712 28.2213 6.35049 28.524 6.67732 28.9094C6.74796 28.9897 6.83491 29.054 6.93238 29.0981C7.02984 29.1422 7.13558 29.165 7.24255 29.165C7.34951 29.165 7.45525 29.1422 7.55272 29.0981C7.65018 29.054 7.73713 28.9897 7.80777 28.9094C8.1192 28.5426 8.50923 28.2507 8.94893 28.0552C9.38863 27.8598 9.8667 27.766 10.3476 27.7806C10.8286 27.7953 11.3 27.9181 11.727 28.1399C12.154 28.3617 12.5256 28.6768 12.8141 29.0619C12.8704 29.1339 12.9426 29.1918 13.0252 29.231C13.1077 29.2703 13.1982 29.2898 13.2896 29.2881C13.3809 29.2863 13.4707 29.2634 13.5516 29.221C13.6326 29.1786 13.7026 29.118 13.7561 29.044C14.0796 28.6185 14.5043 28.2808 14.9917 28.0614C15.479 27.842 16.0134 27.748 16.5464 27.7879C16.9691 27.8184 17.3815 27.9334 17.759 28.126C18.1366 28.3187 18.4717 28.585 18.7445 28.9094C18.9522 29.1513 19.1216 29.4237 19.2469 29.7169C19.4947 29.1419 19.9054 28.652 20.4284 28.3076C20.9513 27.9632 21.5636 27.7795 22.1897 27.7789C22.2765 27.7774 22.3634 27.7804 22.4499 27.7879H22.4588C22.9647 27.7489 23.4726 27.8292 23.9416 28.0225C24.4107 28.2157 24.8278 28.5164 25.1594 28.9004C25.2237 28.9754 25.3023 29.0368 25.3906 29.0811C25.4789 29.1254 25.5751 29.1516 25.6737 29.1583C25.7722 29.165 25.8711 29.152 25.9646 29.12C26.0581 29.0881 26.1442 29.0378 26.2181 28.9722C26.2442 28.9506 26.2682 28.9265 26.2898 28.9004C26.5931 28.5464 26.9699 28.2626 27.394 28.0689C27.818 27.8752 28.2792 27.7762 28.7454 27.7787C29.2116 27.7813 29.6716 27.8854 30.0935 28.0837C30.5154 28.2821 30.8891 28.57 31.1885 28.9273C31.258 29.0095 31.3445 29.0755 31.4421 29.1208C31.5398 29.1661 31.6461 29.1896 31.7537 29.1896C31.8613 29.1896 31.9676 29.1661 32.0653 29.1208C32.1629 29.0755 32.2494 29.0095 32.3189 28.9273C32.6168 28.5715 32.9883 28.2846 33.4078 28.0863C33.8274 27.888 34.2849 27.7831 34.7489 27.7788C35.2129 27.7746 35.6723 27.871 36.0955 28.0616C36.5186 28.2521 36.8953 28.5322 37.1996 28.8825C37.264 28.957 37.3435 29.017 37.4329 29.0584C37.5223 29.0998 37.6195 29.1216 37.718 29.1225C37.8165 29.1233 37.914 29.1032 38.0041 29.0633C38.0942 29.0235 38.1747 28.9649 38.2404 28.8914C38.5702 28.5121 38.9842 28.2151 39.4493 28.0242C39.9144 27.8334 40.4177 27.754 40.919 27.7924C41.4202 27.8307 41.9056 27.9858 42.3362 28.2452C42.7669 28.5045 43.1309 28.861 43.3992 29.2862Z" fill="#C7CB85"/>
<path d="M25.3747 35.8177C26.2629 35.091 27.1511 34.3643 28.0304 33.6375C27.8958 32.3456 27.7702 31.0626 27.6356 29.7707C27.2449 29.6823 26.8777 29.511 26.559 29.2682C26.3437 29.1068 26.1822 28.9811 26.0925 28.7479C26.0207 28.5684 26.0027 28.3531 25.9758 28.066C25.9669 27.9494 25.9669 27.8507 25.9669 27.7789C25.9848 27.0343 25.9938 26.2896 26.0117 25.5449C25.285 25.536 24.5493 25.5359 23.8226 25.527V25.509C23.365 25.509 22.9075 25.518 22.4499 25.518C21.9923 25.518 21.5348 25.509 21.0772 25.509V25.527C20.3505 25.5359 19.6148 25.536 18.8881 25.5449C18.906 26.2896 18.915 27.0343 18.9329 27.7789C18.9329 27.8507 18.9329 27.9494 18.9239 28.066C18.906 28.3531 18.8881 28.5684 18.8073 28.7479C18.7176 28.9722 18.5561 29.0978 18.3408 29.2682C18.021 29.5092 17.6542 29.6803 17.2641 29.7707C17.1296 31.0626 17.004 32.3456 16.8694 33.6375C17.7576 34.3643 18.6458 35.091 19.5251 35.8177L19.4443 36.3291C19.7135 36.356 19.9826 36.3919 20.2518 36.4188C20.4222 36.5624 20.6017 36.7059 20.7721 36.8495L22.4409 36.6611L24.1097 36.8495C24.2801 36.7059 24.4596 36.5624 24.6301 36.4188C24.8992 36.3919 25.1684 36.356 25.4375 36.3291C25.4254 36.1577 25.4045 35.987 25.3747 35.8177Z" fill="#FD995B"/>
<path d="M32.6865 11.1811L12.1768 11.3695C12.2754 10.9478 12.3652 10.5261 12.4639 10.0955L14.025 3.17817L14.2403 2.21818C14.5005 1.67987 14.985 0.935203 15.8193 0.603244C16.0793 0.500834 16.3564 0.449064 16.6358 0.450722C17.1113 0.450722 17.6227 0.576328 18.2776 0.710906C19.1479 0.890344 20.7539 1.21333 22.1714 1.23128C23.3378 1.24025 23.248 1.02492 26.8189 0.576328C27.2825 0.506612 27.7498 0.464668 28.2185 0.450722C28.7029 0.450722 29.0798 0.531469 29.4476 0.764738C30.2102 1.23127 30.5242 2.04772 30.6678 2.55014L30.8024 3.14228C31.3496 5.466 31.891 7.78971 32.4263 10.1134C32.516 10.4633 32.5967 10.8222 32.6865 11.1811Z" fill="#EBBE9B"/>
<path d="M22.4231 18.1701C31.1192 18.1701 38.1688 16.1336 38.1688 13.6214C38.1688 11.1092 31.1192 9.07263 22.4231 9.07263C13.7271 9.07263 6.67749 11.1092 6.67749 13.6214C6.67749 16.1336 13.7271 18.1701 22.4231 18.1701Z" fill="#E7A977"/>
<path d="M13.4687 17.9817C14.7372 17.9817 15.7655 16.9533 15.7655 15.6849C15.7655 14.4164 14.7372 13.3881 13.4687 13.3881C12.2002 13.3881 11.1719 14.4164 11.1719 15.6849C11.1719 16.9533 12.2002 17.9817 13.4687 17.9817Z" fill="#FD995B"/>
<path d="M31.467 17.9817C32.7355 17.9817 33.7638 16.9533 33.7638 15.6849C33.7638 14.4164 32.7355 13.3881 31.467 13.3881C30.1985 13.3881 29.1702 14.4164 29.1702 15.6849C29.1702 16.9533 30.1985 17.9817 31.467 17.9817Z" fill="#FD995B"/>
<path d="M14.1327 13.2266C14.5158 12.9719 14.9143 12.7412 15.326 12.5358C16.4026 12.0065 17.7932 11.5668 22.2792 11.5758C27.2586 11.5848 28.8197 12.141 29.995 12.796C30.2821 12.9575 30.5153 13.101 30.6679 13.2087C30.6858 15.1197 30.7127 17.0217 30.7307 18.9328C30.7217 19.5249 30.623 22.378 28.3172 24.6927C26.2178 26.8011 23.6878 27.0613 23.0597 27.1061C19.8388 27.3394 17.6317 25.5989 17.1114 25.1682C14.5993 23.0778 14.2135 20.2606 14.1417 19.6595C14.1327 17.5062 14.1297 15.3619 14.1327 13.2266Z" fill="#FCAD6D"/>
<path d="M37.4686 39.0387C35.9896 40.4433 34.3229 41.636 32.5161 42.5826C30.8179 43.4736 29.0072 44.1315 27.133 44.5385C26.7024 44.6371 26.2627 44.7179 25.8141 44.7807C23.5846 45.1276 21.3148 45.1276 19.0852 44.7807C18.6905 44.7179 18.2957 44.6461 17.901 44.5654C13.9583 43.7258 10.3269 41.806 7.41284 39.0208C7.69994 37.5404 7.98704 36.06 8.26517 34.5797C8.33714 34.2009 8.45777 33.833 8.62404 33.4851C8.92066 32.8599 9.35339 32.3091 9.89053 31.8728C10.4277 31.4366 11.0556 31.1261 11.7283 30.964L12.6345 30.7487L14.7967 30.2373C15.4427 30.0848 16.0976 29.9322 16.7526 29.7708C16.8303 30.1037 16.9323 30.4306 17.0576 30.7487C17.0845 30.8115 17.1114 30.8833 17.1383 30.9461C17.3167 31.3392 17.546 31.7072 17.8202 32.0406C17.9062 32.1454 17.9991 32.2443 18.0983 32.3367C18.8251 33.0365 20.108 33.7632 20.2785 33.8619C20.9963 34.2657 21.6333 34.5438 21.7948 35.0642C21.8845 35.3602 22.0549 35.6204 22.1805 35.8985C22.2344 36.0152 22.2972 36.1587 22.3959 36.1677C22.4946 36.1767 22.5843 36.0241 22.6381 35.9075C22.8624 35.4858 22.9701 35.2705 23.0508 35.0103C23.0846 34.902 23.1395 34.8014 23.2123 34.7143C23.4994 34.3644 24.0557 34.1849 24.8003 33.7543C25.456 33.3574 26.0692 32.8944 26.6306 32.3726C26.8009 32.217 26.9626 32.0523 27.1151 31.8791C27.3462 31.6222 27.559 31.3494 27.7521 31.0627C27.8238 30.964 27.8867 30.8564 27.9584 30.7487C28.1196 30.4878 28.2664 30.2182 28.398 29.9412C28.9812 30.0668 29.5734 30.1924 30.1565 30.327C30.8205 30.4706 31.4754 30.6141 32.1303 30.7577C32.4085 30.8205 32.6866 30.8743 32.9647 30.9371C33.354 31.0243 33.7307 31.1599 34.0862 31.3408C34.6995 31.655 35.2346 32.1025 35.6522 32.6506C36.0698 33.1986 36.3594 33.8333 36.4996 34.5079C36.8316 36.0062 37.1546 37.5225 37.4686 39.0387Z" fill="#502419"/>
<path d="M17.8213 34.6714H14.7295V39.53H17.8213V34.6714Z" fill="#ABCFF3"/>
<path d="M30.1925 34.6694H27.178V39.909H30.1925V34.6694Z" fill="#ABCFF3"/>
<path d="M14.7657 30.1235C14.8131 29.9473 14.8961 29.7826 15.0097 29.6393C15.1092 29.5227 15.2448 29.4151 15.6878 29.2448C16.1579 29.0565 16.5557 28.913 17.08 28.931C17.4145 28.9399 17.5501 29.0117 17.6315 29.0924C17.7521 29.211 17.8204 29.3722 17.8213 29.5407C17.8123 31.3608 17.8123 33.1809 17.8033 35.001C17.6907 35.3115 17.4777 35.5763 17.1975 35.7542C16.9472 35.9074 16.6599 35.991 16.3658 35.9963C16.1332 36.0001 15.9021 35.9577 15.6862 35.8714C15.4704 35.7852 15.2742 35.6569 15.1092 35.4942C14.9396 35.3137 14.8102 35.0999 14.7295 34.8665C14.7476 33.2975 14.7566 31.7105 14.7657 30.1235Z" fill="#5FA9F9"/>
<path d="M32.5253 40.6267C32.5253 41.2817 32.5253 41.9277 32.5163 42.5826C30.818 43.4737 29.0073 44.1315 27.1332 44.5385C26.7025 44.6372 26.2629 44.7179 25.8143 44.7807H19.0944C18.6996 44.7179 18.3049 44.6461 17.9101 44.5654C16.0101 44.1587 14.1727 43.501 12.4462 42.6095C12.4462 41.9456 12.4373 41.2906 12.4373 40.6267C12.4379 40.4524 12.5069 40.2853 12.6293 40.1612C12.7517 40.0371 12.9179 39.9659 13.0922 39.9628H13.1191C13.4967 39.96 13.8631 39.8341 14.1626 39.6041C14.4622 39.3742 14.6786 39.0528 14.7789 38.6888C14.8186 38.5394 14.8397 38.3858 14.8417 38.2312V38.1864C14.8424 38.0121 14.9113 37.8449 15.0338 37.7208C15.1562 37.5967 15.3224 37.5255 15.4967 37.5225C16.2862 37.5225 17.0847 37.5225 17.8742 37.5135C19.202 37.5135 20.5299 37.5045 21.8577 37.5045H23.0779C24.4416 37.5045 25.8053 37.5135 27.1691 37.5135C27.9317 37.5135 28.6853 37.5135 29.4479 37.5225C29.5347 37.5225 29.6206 37.5397 29.7006 37.5732C29.7807 37.6066 29.8533 37.6557 29.9142 37.7175C29.9752 37.7792 30.0232 37.8525 30.0556 37.933C30.088 38.0135 30.1041 38.0996 30.1029 38.1864V38.2312C30.1027 38.4078 30.1299 38.5834 30.1836 38.7516C30.2933 39.1023 30.5113 39.4093 30.8062 39.6285C31.1012 39.8477 31.458 39.9679 31.8255 39.9718H31.8524C31.9396 39.9705 32.0262 39.9864 32.1073 40.0186C32.1883 40.0509 32.2622 40.0988 32.3247 40.1596C32.3873 40.2205 32.4371 40.293 32.4716 40.3732C32.506 40.4533 32.5242 40.5395 32.5253 40.6267Z" fill="#3E86EF"/>
<path d="M16.3666 40.3665C16.7482 40.3665 17.0575 40.0572 17.0575 39.6757C17.0575 39.2942 16.7482 38.9849 16.3666 38.9849C15.9851 38.9849 15.6758 39.2942 15.6758 39.6757C15.6758 40.0572 15.9851 40.3665 16.3666 40.3665Z" fill="#66A6F2"/>
<path d="M28.5868 40.3665C28.9684 40.3665 29.2777 40.0572 29.2777 39.6757C29.2777 39.2942 28.9684 38.9849 28.5868 38.9849C28.2053 38.9849 27.896 39.2942 27.896 39.6757C27.896 40.0572 28.2053 40.3665 28.5868 40.3665Z" fill="#66A6F2"/>
<path d="M27.1327 42.6095V44.5385C26.702 44.6372 26.2624 44.7179 25.8138 44.7807C23.5843 45.1276 21.3145 45.1276 19.0849 44.7807C18.6902 44.7179 18.2954 44.6461 17.9006 44.5654V42.6095C17.9013 42.3504 18.0046 42.1021 18.1878 41.9188C18.3711 41.7356 18.6194 41.6323 18.8786 41.6316H26.1458C26.406 41.6316 26.6557 41.7343 26.8405 41.9175C27.0253 42.1006 27.1303 42.3493 27.1327 42.6095Z" fill="#377C9A"/>
<path d="M30.1746 30.1655C30.1275 29.9892 30.0451 29.8244 29.9323 29.681C29.8336 29.5644 29.6991 29.4567 29.2594 29.2862C28.7929 29.0978 28.3981 28.9543 27.8778 28.9722C27.5458 28.9812 27.4112 29.053 27.3305 29.1337C27.2108 29.2524 27.1431 29.4137 27.1421 29.5823C27.1511 31.4036 27.1511 33.2249 27.16 35.0462C27.2717 35.3568 27.4831 35.6218 27.7611 35.7998C28.0096 35.9531 28.2947 36.0368 28.5866 36.0421C28.8175 36.0459 29.0468 36.0034 29.261 35.9171C29.4752 35.8308 29.6699 35.7025 29.8337 35.5396C30.002 35.3591 30.1304 35.1451 30.2105 34.9116C30.1925 33.3415 30.1836 31.7535 30.1746 30.1655Z" fill="#5FA9F9"/>
</svg>
